<?xml version="1.0" standalone="no"?><!DOCTYPE svg PUBLIC "-//W3C//DTD SVG 1.1//EN" "http://www.w3.org/Graphics/SVG/1.1/DTD/svg11.dtd"><svg t="1611488127033" class="icon" viewBox="0 0 1024 1024" version="1.1" xmlns="http://www.w3.org/2000/svg" p-id="1869" xmlns:xlink="http://www.w3.org/1999/xlink" width="200" height="200"><defs><style type="text/css"></style></defs><path d="M896 422.4a349.44 349.44 0 0 0-96-32.64V128a32 32 0 0 0-32-32H128a32 32 0 0 0-32 32v768a32 32 0 0 0 32 32h312.96A353.92 353.92 0 0 0 533.504 1024H128a128 128 0 0 1-128-128V128a128 128 0 0 1 128-128h640a128 128 0 0 1 128 128v294.4zM176 192h416a48 48 0 0 1 0 96h-416a48 48 0 0 1 0-96z m0 192h224a48 48 0 0 1 0 96h-224a48 48 0 0 1 0-96z m648.768 131.328l26.304-26.24a32 32 0 0 1 45.248 0l22.656 22.592a32 32 0 0 1 0 45.248l-26.304 26.24c14.08 22.016 24.448 46.528 30.144 72.832H960a32 32 0 0 1 32 32v32a32 32 0 0 1-32 32h-37.12a222.72 222.72 0 0 1-30.208 72.768l26.24 26.304a32 32 0 0 1 0 45.248l-22.592 22.656a32 32 0 0 1-45.248 0l-26.24-26.304a222.72 222.72 0 0 1-72.832 30.144V960a32 32 0 0 1-32 32h-32a32 32 0 0 1-32-32v-37.12a222.72 222.72 0 0 1-72.768-30.208l-26.304 26.24a32 32 0 0 1-45.248 0l-22.656-22.592a32 32 0 0 1 0-45.248l26.304-26.24a222.72 222.72 0 0 1-30.144-72.832H448a32 32 0 0 1-32-32v-32a32 32 0 0 1 32-32h37.12c5.76-26.24 16.128-50.816 30.208-72.768l-26.24-26.304a32 32 0 0 1 0-45.248l22.592-22.656a32 32 0 0 1 45.248 0l26.24 26.304a222.72 222.72 0 0 1 72.832-30.144V448a32 32 0 0 1 32-32h32a32 32 0 0 1 32 32v37.12c26.24 5.76 50.816 16.128 72.768 30.208zM704 832a128 128 0 1 0 0-256 128 128 0 0 0 0 256z" fill="#999999" p-id="1870"></path></svg>